<mxfile host="65bd71144e">
    <diagram id="P-WqHERUTygYb5mWHrwf" name="Page-1">
        <mxGraphModel dx="1762" dy="1105" grid="1" gridSize="10" guides="1" tooltips="1" connect="1" arrows="1" fold="1" page="1" pageScale="1" pageWidth="850" pageHeight="1100" math="0" shadow="0">
            <root>
                <mxCell id="0"/>
                <mxCell id="1" parent="0"/>
                <mxCell id="2" value="" style="rounded=0;whiteSpace=wrap;html=1;fillColor=#e1d5e7;strokeColor=#9673a6;" vertex="1" parent="1">
                    <mxGeometry x="40" y="20" width="580" height="500" as="geometry"/>
                </mxCell>
                <mxCell id="3" value="Name:&lt;br&gt;Session Score:&lt;br&gt;Recent Achievment" style="rounded=0;whiteSpace=wrap;html=1;fillColor=#0050ef;fontColor=#ffffff;strokeColor=#001DBC;align=left;" vertex="1" parent="1">
                    <mxGeometry x="460" y="40" width="130" height="60" as="geometry"/>
                </mxCell>
                <mxCell id="4" value="Profile Pic" style="shape=umlActor;verticalLabelPosition=bottom;verticalAlign=top;html=1;outlineConnect=0;fillColor=#d5e8d4;strokeColor=#82b366;" vertex="1" parent="1">
                    <mxGeometry x="410" y="40" width="30" height="60" as="geometry"/>
                </mxCell>
                <mxCell id="5" value="Film &amp;amp; TV" style="rounded=1;whiteSpace=wrap;html=1;fillColor=#60a917;fontColor=#ffffff;strokeColor=#2D7600;" vertex="1" parent="1">
                    <mxGeometry x="180" y="230" width="120" height="60" as="geometry"/>
                </mxCell>
                <mxCell id="6" value="Food &amp;amp; Drink" style="rounded=1;whiteSpace=wrap;html=1;fillColor=#60a917;fontColor=#ffffff;strokeColor=#2D7600;" vertex="1" parent="1">
                    <mxGeometry x="350" y="230" width="120" height="60" as="geometry"/>
                </mxCell>
                <mxCell id="7" value="Geography" style="rounded=1;whiteSpace=wrap;html=1;fillColor=#60a917;fontColor=#ffffff;strokeColor=#2D7600;" vertex="1" parent="1">
                    <mxGeometry x="180" y="320" width="120" height="60" as="geometry"/>
                </mxCell>
                <mxCell id="8" value="History" style="rounded=1;whiteSpace=wrap;html=1;fillColor=#60a917;fontColor=#ffffff;strokeColor=#2D7600;" vertex="1" parent="1">
                    <mxGeometry x="350" y="320" width="120" height="60" as="geometry"/>
                </mxCell>
                <mxCell id="9" value="Music" style="rounded=1;whiteSpace=wrap;html=1;fillColor=#60a917;fontColor=#ffffff;strokeColor=#2D7600;" vertex="1" parent="1">
                    <mxGeometry x="180" y="410" width="120" height="60" as="geometry"/>
                </mxCell>
                <mxCell id="10" value="Sports &amp;amp; Leisure" style="rounded=1;whiteSpace=wrap;html=1;fillColor=#60a917;fontColor=#ffffff;strokeColor=#2D7600;" vertex="1" parent="1">
                    <mxGeometry x="350" y="410" width="120" height="60" as="geometry"/>
                </mxCell>
                <mxCell id="12" value="&lt;h1&gt;&lt;font color=&quot;#000000&quot;&gt;Welcome to Trivia&lt;/font&gt;&lt;/h1&gt;&lt;div&gt;&lt;font color=&quot;#000000&quot;&gt;pick your subject and test your knowledge&lt;/font&gt;&lt;/div&gt;" style="text;html=1;strokeColor=none;fillColor=none;spacing=5;spacingTop=-20;whiteSpace=wrap;overflow=hidden;rounded=0;" vertex="1" parent="1">
                    <mxGeometry x="180" y="140" width="310" height="80" as="geometry"/>
                </mxCell>
            </root>
        </mxGraphModel>
    </diagram>
    <diagram id="r0oWp42lu5z-zCl9hdEj" name="Page-2">
        <mxGraphModel dx="1762" dy="1105" grid="1" gridSize="10" guides="1" tooltips="1" connect="1" arrows="1" fold="1" page="1" pageScale="1" pageWidth="850" pageHeight="1100" math="0" shadow="0">
            <root>
                <mxCell id="WKTzsspfK5fvmgACcuTt-0"/>
                <mxCell id="WKTzsspfK5fvmgACcuTt-1" parent="WKTzsspfK5fvmgACcuTt-0"/>
                <mxCell id="iZclM0qkI5Qm-LNfFMvX-0" value="" style="rounded=0;whiteSpace=wrap;html=1;fillColor=#e1d5e7;strokeColor=#9673a6;" vertex="1" parent="WKTzsspfK5fvmgACcuTt-1">
                    <mxGeometry x="40" y="20" width="580" height="500" as="geometry"/>
                </mxCell>
                <mxCell id="iZclM0qkI5Qm-LNfFMvX-1" value="Name:&lt;br&gt;Session Score:&lt;br&gt;Recent Achievment" style="rounded=0;whiteSpace=wrap;html=1;fillColor=#0050ef;fontColor=#ffffff;strokeColor=#001DBC;align=left;" vertex="1" parent="WKTzsspfK5fvmgACcuTt-1">
                    <mxGeometry x="460" y="40" width="130" height="60" as="geometry"/>
                </mxCell>
                <mxCell id="iZclM0qkI5Qm-LNfFMvX-2" value="Profile Pic" style="shape=umlActor;verticalLabelPosition=bottom;verticalAlign=top;html=1;outlineConnect=0;fillColor=#d5e8d4;strokeColor=#82b366;" vertex="1" parent="WKTzsspfK5fvmgACcuTt-1">
                    <mxGeometry x="410" y="40" width="30" height="60" as="geometry"/>
                </mxCell>
                <mxCell id="iZclM0qkI5Qm-LNfFMvX-3" value="Question...." style="text;html=1;strokeColor=none;fillColor=none;align=left;verticalAlign=middle;whiteSpace=wrap;rounded=0;fontColor=#000000;fontSize=30;" vertex="1" parent="WKTzsspfK5fvmgACcuTt-1">
                    <mxGeometry x="75" y="170" width="200" height="30" as="geometry"/>
                </mxCell>
                <mxCell id="iZclM0qkI5Qm-LNfFMvX-4" value="&lt;font color=&quot;#fffcfc&quot;&gt;Response 1&lt;/font&gt;" style="rounded=1;whiteSpace=wrap;html=1;fontColor=#000000;" vertex="1" parent="WKTzsspfK5fvmgACcuTt-1">
                    <mxGeometry x="75" y="230" width="120" height="60" as="geometry"/>
                </mxCell>
                <mxCell id="iZclM0qkI5Qm-LNfFMvX-5" value="&lt;font color=&quot;#fffcfc&quot;&gt;Response 3&lt;/font&gt;" style="rounded=1;whiteSpace=wrap;html=1;fontColor=#000000;" vertex="1" parent="WKTzsspfK5fvmgACcuTt-1">
                    <mxGeometry x="335" y="230" width="120" height="60" as="geometry"/>
                </mxCell>
                <mxCell id="iZclM0qkI5Qm-LNfFMvX-6" value="&lt;font color=&quot;#fffcfc&quot;&gt;Response 2&lt;/font&gt;" style="rounded=1;whiteSpace=wrap;html=1;fontColor=#000000;" vertex="1" parent="WKTzsspfK5fvmgACcuTt-1">
                    <mxGeometry x="205" y="230" width="120" height="60" as="geometry"/>
                </mxCell>
                <mxCell id="iZclM0qkI5Qm-LNfFMvX-7" value="&lt;font color=&quot;#fffcfc&quot;&gt;Response 4&lt;/font&gt;" style="rounded=1;whiteSpace=wrap;html=1;fontColor=#000000;" vertex="1" parent="WKTzsspfK5fvmgACcuTt-1">
                    <mxGeometry x="465" y="230" width="120" height="60" as="geometry"/>
                </mxCell>
            </root>
        </mxGraphModel>
    </diagram>
</mxfile>